<?xml version="1.0" encoding="iso-8859-1"?>
<!-- Free Icon Download www.onlinewebfonts.com -->
<!DOCTYPE svg PUBLIC "-//W3C//DTD SVG 1.1//EN" "http://www.w3.org/Graphics/SVG/1.1/DTD/svg11.dtd">
<svg version="1.1" id="Capa_1" xmlns="http://www.w3.org/2000/svg" xmlns:xlink="http://www.w3.org/1999/xlink" x="0px" y="0px"
	 width="562.927px" height="562.927px" viewBox="0 0 562.927 562.927" style="enable-background:new 0 0 562.927 562.927;"
	 xml:space="preserve">
<g>
	<g>
		<path d="M562.927,462.019V138.88c0-12.677-10.275-22.95-22.95-22.95H263.864l-34.024-31.788c-4.25-3.975-9.85-6.184-15.67-6.184
			H22.95C10.275,77.958,0,88.231,0,100.909v361.11c0,12.678,10.275,22.949,22.95,22.949h517.024
			C552.651,484.968,562.927,474.693,562.927,462.019z M517.026,439.07H353.647v-78.756c0-5.07,4.109-9.18,9.18-9.18h52.567
			c5.07,0,6.273-2.908,2.69-6.49l-130.13-130.127c-3.586-3.586-9.397-3.586-12.983,0L144.845,344.644
			c-3.586,3.586-2.381,6.49,2.689,6.49h52.568c5.07,0,9.18,4.109,9.18,9.18v78.756H45.903V123.858h159.215l34.021,31.791
			c4.25,3.975,9.851,6.184,15.67,6.184h262.217V439.07z"/>
	</g>
</g>
</svg>
